<svg id="Layer_2" data-name="Layer 2" xmlns="http://www.w3.org/2000/svg" xmlns:xlink="http://www.w3.org/1999/xlink" viewBox="0 0 400 300" width="406" height="306" class="illustration"><defs><linearGradient id="linear-gradient" x1="1256.89" y1="208.82" x2="1243.25" y2="198.96" gradientTransform="matrix(-1, 0, 0, 1, 1356.72, 0)" gradientUnits="userSpaceOnUse"><stop offset="0.01" stop-color="#666" stop-opacity="0"></stop><stop offset="1" stop-color="#1a1a1a"></stop></linearGradient><linearGradient id="linear-gradient-2" x1="1233.84" y1="243.28" x2="1220.28" y2="233.48" xlink:href="#linear-gradient"></linearGradient><linearGradient id="linear-gradient-3" x1="1110.88" y1="173.31" x2="1078.67" y2="150.02" xlink:href="#linear-gradient"></linearGradient></defs><title>PP</title><path d="M194.28,291,14.56,184.76c-5.72-3.21-10.63-8.49-5.05-11.94l180.37-104c2.71-1.68,6.82-2.78,9.57-1.18L388.11,177.18c5.72,3.32,6.75,12.6,1,15.93L218,290.81A23.9,23.9,0,0,1,194.28,291Z" fill="#dd6f31"></path><path d="M121.23,195.79l-10.11-.8L94.36,205.85l4,11S115.15,202.6,121.23,195.79Z" opacity="0.32" fill="url(#linear-gradient)"></path><path d="M146.22,233.17l-16.2-4L113.27,240l14.92,9.6S140.14,240,146.22,233.17Z" opacity="0.32" fill="url(#linear-gradient-2)"></path><polygon points="368.61 164.27 267.72 223.15 154.56 159.43 254.81 100.89 368.61 164.27" fill="#68e1fd"></polygon><ellipse cx="209.2" cy="191.29" rx="54.63" ry="31.85" fill="none" stroke="#754c24" stroke-miterlimit="10" stroke-width="2"></ellipse><polyline points="244.33 215.67 347.93 154.37 272.1 110.78 168.75 169.88" fill="none" stroke="#754c24" stroke-miterlimit="10" stroke-width="2"></polyline><path d="M129,228v3.27s0,.82,1.81,1.22,3.5-.23,5.69.26,6.49,1.25,8,1,1.65-.51,1.65-.6.36-2.25.36-2.25" fill="#ff9c39"></path><path d="M110.52,198.56v2.64a2.25,2.25,0,0,0,2.48,1.4,4.19,4.19,0,0,0,3.48-2.53,7.06,7.06,0,0,1,2.13-2.56c.8-.46,2.43-1.29,2.62-1.73a12.52,12.52,0,0,0,.3-2.16" fill="#ff9c39"></path><path d="M112.17,192.59a1.14,1.14,0,0,0-.9.7,20,20,0,0,0-.71,6.07,2.66,2.66,0,0,0,3.36,1.74c1.59-.39,2.51-2.08,3.29-3.36s4.06-1.87,4.27-3.64-.18-3.78-3.36-4.17S112.17,192.59,112.17,192.59Z" fill="#641300"></path><path d="M116.43,173.94s-4.92,19.18-4.33,20.26a2.39,2.39,0,0,0,3,1.08c1.18-.49,2.46-3.54,2.46-3.54l7.47-14.46,8.65,18.19s-1.18,6.79-2,13A151,151,0,0,0,131,223.7s2,2.46,5.8,0c0,0,5.42-20.15,5.91-24.33s-1.78-9.69-1.78-9.69" fill="#edb29f"></path><path d="M112,161.76c0,.38-2.39,7.53.72,11s9.62,6,10.1,6.68S130,195.61,131.31,196a11.29,11.29,0,0,0,11-4.93s-9.73-22.85-10.91-23.91S112,161.76,112,161.76Z" fill="#68e1fd"></path><path d="M112,161.76c0,.38-2.39,7.53.72,11s9.62,6,10.1,6.68S130,195.61,131.31,196a11.29,11.29,0,0,0,11-4.93s-9.73-22.85-10.91-23.91S112,161.76,112,161.76Z" fill="#3c92a0" opacity="0.59"></path><path d="M132.68,128.07s-1.28,2.51-2.62,3.1c0,0,.53,3.47,6.41,4.81a10.38,10.38,0,0,1,2.62-4.22C140.84,130.3,132.68,128.07,132.68,128.07Z" fill="#edb29f"></path><path d="M144.11,124.12a29.14,29.14,0,0,0-.48,3.15c0,.75-2.19,5.77-3.79,6.25s-2.51-1.07-2.62-2.72S142.29,123.7,144.11,124.12Z" fill="#edb29f"></path><path d="M139.43,128.06s1.34.22,1.41,1.12c0,0-.15,1.49,0,1.12s1.86-1.56,1.71-3.5,1.49-1.19,1.86-2.23,1.27-3.65-2.49-5.66-9.12-1.56-10,2.38-.89,7.22,0,8.26,3.05,3,5.14,2.46S138.09,129.33,139.43,128.06Z" fill="#641300"></path><path d="M124.76,130.7c-.52-.07-2.25-.65-5.17,1.32s-8.24,9-8.84,9.54a22.62,22.62,0,0,0-4,9s1.72,1.5,2.92,1c0,0,2.32-4,3.75-6.14a5.43,5.43,0,0,1,3.37-2.47Z" fill="#edb29f"></path><path d="M106.78,150.56a18.32,18.32,0,0,0-1.69,1.51c-1,1-2.48,3-2.37,3.95s1.92,2.14,2.31,2.31a4.48,4.48,0,0,0,2.54-.51c.34-.34.73-2.37,1-2.2s-.34,2.2,0,2.37,1.07-1.41,1.52-2.42-.41-4-.41-4Z" fill="#edb29f"></path><path d="M165.72,161.52c.25-.07.5-.12.74-.19a13.66,13.66,0,0,1-1.3-10.34,8.3,8.3,0,0,0-6.37,7.92h0C161.18,159,164.64,159.36,165.72,161.52Z" fill="#fb9328"></path><path d="M167.51,161c.54-.2,1.06-.43,1.58-.67-1.17-2.67,1.91-5.61,2.64-8a.49.49,0,0,1,.33-.34,9,9,0,0,0-4.59-1.25,9.19,9.19,0,0,0-1.11.07A12.73,12.73,0,0,0,167.51,161Z" fill="#fb9328"></path><path d="M170.69,160.7c1.13,1,3.37.71,5.18.21a7.59,7.59,0,0,0,0-4.13A20.8,20.8,0,0,1,170.69,160.7Z" fill="#fb9328"></path><path d="M170,159.05a2.91,2.91,0,0,0,.15.75,19.87,19.87,0,0,0,5.32-4.13,8.32,8.32,0,0,0-2.62-3.19.48.48,0,0,1,0,.12C172.12,154.72,169.82,156.71,170,159.05Z" fill="#fb9328"></path><path d="M164.55,161.82a3,3,0,0,0-.29-.34c-1.32-1.3-3.51-1.45-5.4-1.5a7.83,7.83,0,0,0,.66,2.25A21.2,21.2,0,0,0,164.55,161.82Z" fill="#fb9328"></path><path d="M169.65,161.22c-.51.24-1,.47-1.57.68a14.16,14.16,0,0,0,4.13,3.85,8.38,8.38,0,0,0,3.22-3.59C173.34,162.66,171,162.75,169.65,161.22Z" fill="#fb9328"></path><path d="M167,162.27c-.34.11-.69.18-1,.28.17,1.73-1.5,2.71-3.3,3.23a9.08,9.08,0,0,0,8.49.54A15.21,15.21,0,0,1,167,162.27Z" fill="#fb9328"></path><path d="M164.92,162.83a22.1,22.1,0,0,1-4.78.48,8.37,8.37,0,0,0,1.42,1.65C163.1,164.57,164.82,163.89,164.92,162.83Z" fill="#fb9328"></path><path d="M170.69,160.7a20.8,20.8,0,0,0,5.14-3.94,7.88,7.88,0,0,0-.41-1.13,19.87,19.87,0,0,1-5.32,4.13A2.91,2.91,0,0,1,170,159c-.14-2.3,2.16-4.29,2.84-6.43a.48.48,0,0,0,0-.12,8.7,8.7,0,0,0-.76-.5.49.49,0,0,0-.33.34c-.73,2.42-3.81,5.37-2.64,8-.52.24-1,.47-1.58.67a12.73,12.73,0,0,1-1.15-10.24,9.08,9.08,0,0,0-1.21.23,13.66,13.66,0,0,0,1.3,10.34c-.24.07-.5.12-.74.19-1.07-2.16-4.53-2.48-6.93-2.6a7.82,7.82,0,0,0,.08,1.06c1.89,0,4.08.2,5.4,1.5a3,3,0,0,1,.29.34,21.2,21.2,0,0,1-5,.41,8.06,8.06,0,0,0,.61,1.08,22.1,22.1,0,0,0,4.78-.48c-.1,1.06-1.82,1.73-3.36,2.1a8.65,8.65,0,0,0,1.14.83c1.8-.52,3.47-1.5,3.3-3.23.35-.09.7-.17,1-.28a15.21,15.21,0,0,0,4.13,4.05,8.82,8.82,0,0,0,1.07-.57,14.16,14.16,0,0,1-4.13-3.85c.53-.2,1-.43,1.57-.68,1.34,1.53,3.68,1.44,5.78.94a7.87,7.87,0,0,0,.44-1.24C174.06,161.41,171.83,161.72,170.69,160.7Z" fill="#641300"></path><path d="M174.15,153.66c.72,5-2.31,10.45-9.08,10.45a9.51,9.51,0,0,1-5.33-1.5,8.73,8.73,0,0,0,7.74,4.52,8.46,8.46,0,0,0,8.68-8.23v0A7.93,7.93,0,0,0,174.15,153.66Z" fill="#cc5f1f" opacity="0.3" style="isolation: isolate;"></path><path d="M137.19,142.21l.22-.17c1.36-1,4.17-1.39,5.28.21,1.53,2.21,6.21,12.1,6.63,12.22s11.14-4.14,12.16-4.48a18.72,18.72,0,0,1,5.1-1c1.36.09,7.31.26,7.91.77s-.34,1.2-1.11,2-4.17.76-3.66,1.18,2.64.34,2.47.94-6.21,1.06-7.4.66-2.3-1-3.06-.57-11,8.5-13.69,7.82-9.86-5.53-11.82-12.07C135.52,147.26,134.94,144,137.19,142.21Z" fill="#edb29f"></path><path d="M142.69,142.25s-3.85-5.35-7.57-8-10-4.2-12-3.65-6.61,8.84-7.36,12.77-5.45,17.66-5,20,6.37,6.52,12.9,7,7.66-2.2,7.66-2.2a19.55,19.55,0,0,1,.68-4.67c.68-2.46,5.18-10.5,5.21-10.73s-1.39-3.79,0-7.21S142.24,141.54,142.69,142.25Z" fill="#68e1fd"></path><path d="M131,222.89a.67.67,0,0,0-.54-.82c-.67-.18-1.82,5.67-1.24,7.12s3.82,1.24,5.94,1.3,3.49.7,5.55,1,5.73.36,5.82-.27.79-1.3-1.18-2.88-7.51-2.75-7.51-3.09,1.09-3.1.63-3.7a1.09,1.09,0,0,0-1.42-.36c-.42.18-.42,2.36-.82,2.58a6,6,0,0,1-3.15.42A4.22,4.22,0,0,1,131,222.89Z" fill="#641300"></path><path d="M39.22,165.86a3.88,3.88,0,0,0,1.4-1.3L47.43,154c3.15-4.88,4.3-39.87-4-40.31-6.56-.35-13.31,15-15.66,19.47-2.2,4.2-4.61,8.67-5.92,13.25-2,6.9,2.51,12.94,6.76,18.42C30.69,167.48,36.48,167.38,39.22,165.86Z" fill="#66c652"></path><path d="M35.16,172.77q-1.37,1-2.69,2a128.51,128.51,0,0,1,6.39-46,1.4,1.4,0,0,1,2.67.84A125.81,125.81,0,0,0,35.16,172.77Z" fill="#124577"></path><path d="M25.55,163a2.48,2.48,0,0,0,.16-1.21l-.93-7.95c-.43-3.68-14.09-21.36-18.33-18.22-3.37,2.5-.46,12.79.21,15.95a46.5,46.5,0,0,0,2.47,8.92c1.83,4.2,6.5,5.35,10.81,6.31C22,167.31,24.82,164.9,25.55,163Z" fill="#49b230"></path><path d="M13,145.34A153.55,153.55,0,0,1,27.48,178a17.79,17.79,0,0,0-2,1.28A151.4,151.4,0,0,0,11,146.43C10.21,145.16,12.23,144.08,13,145.34Z" fill="#124577"></path><path d="M39.53,166.6a2.48,2.48,0,0,1-.16-1.21l.93-7.95c.43-3.68,14.09-21.36,18.33-18.22,3.37,2.5.46,12.79-.21,15.95A46.5,46.5,0,0,1,56,164.09c-1.83,4.2-6.5,5.35-10.81,6.31C43.07,170.86,40.26,168.45,39.53,166.6Z" fill="#49b230"></path><path d="M52.1,148.9a153.55,153.55,0,0,0-14.5,32.65,17.79,17.79,0,0,1,2,1.28A151.4,151.4,0,0,1,54.12,150C54.87,148.71,52.85,147.63,52.1,148.9Z" fill="#124577"></path><path d="M357.77,174.4a3.88,3.88,0,0,0,1.4-1.3l6.8-10.53c3.15-4.88,4.3-39.87-4-40.31-6.56-.35-13.31,15-15.66,19.47-2.2,4.2-4.61,8.67-5.92,13.25-2,6.9,2.51,12.94,6.76,18.42C349.24,176,355,175.91,357.77,174.4Z" fill="#66c652"></path><path d="M353.71,181.3q-1.37,1-2.69,2a128.51,128.51,0,0,1,6.39-46,1.4,1.4,0,0,1,2.67.84A125.81,125.81,0,0,0,353.71,181.3Z" fill="#124577"></path><path d="M344.1,171.58a2.48,2.48,0,0,0,.16-1.21l-.93-7.95c-.43-3.68-14.09-21.36-18.33-18.22-3.37,2.5-.46,12.79.21,15.95a46.5,46.5,0,0,0,2.47,8.92c1.83,4.2,6.5,5.35,10.81,6.31C340.57,175.84,343.38,173.44,344.1,171.58Z" fill="#49b230"></path><path d="M331.54,153.88A153.55,153.55,0,0,1,346,186.53a17.79,17.79,0,0,0-2,1.28A151.4,151.4,0,0,0,329.52,155C328.77,153.7,330.79,152.62,331.54,153.88Z" fill="#124577"></path><path d="M358.09,175.13a2.48,2.48,0,0,1-.16-1.21l.93-7.95c.43-3.68,14.09-21.36,18.33-18.22,3.37,2.5.46,12.79-.21,15.95a46.5,46.5,0,0,1-2.47,8.92c-1.83,4.2-6.5,5.35-10.81,6.31C361.62,179.4,358.82,177,358.09,175.13Z" fill="#49b230"></path><path d="M370.66,157.44a153.55,153.55,0,0,0-14.5,32.65,17.79,17.79,0,0,1,2,1.28,151.4,151.4,0,0,1,14.52-32.84C373.42,157.25,371.4,156.17,370.66,157.44Z" fill="#124577"></path><path d="M309.32,160.39,251.5,142.13l-32.65,17.71,33.94,38.27S298.56,166.54,309.32,160.39Z" opacity="0.32" fill="url(#linear-gradient-3)"></path><polyline points="320.45 153.94 320.45 148.6 313.92 148.49 252.79 138.13 252.79 143.47" fill="#2e1920"></polyline><polyline points="320.45 153.97 278.3 128.77 252.79 143.5 295.69 168.27 320.45 153.97" fill="#2e1920"></polyline><polyline points="320.45 148.63 278.3 123.44 252.79 138.16 295.69 162.93 320.45 148.63" fill="#412e32"></polyline><polygon points="275.32 46.04 289.27 145.76 285.03 142.55 271.47 45.45 275.32 46.04" fill="#412e32"></polygon><path d="M265.31,48.16,279,40.57h0c-1.12-.94-3.84-3.21-7.12-2.33l-8.57,4.57" fill="#412e32"></path><path d="M279.59,41.83A2.49,2.49,0,0,0,276,40l-8.86,4.77v6.08L275.31,46l14,99.72,5.9-2.33Z" fill="#2e1920"></path><polygon points="217.51 56.32 256.13 78.44 256.94 79.83 267.1 86.58 269.73 86.23 269.73 36.71 217.51 6.33 214.9 6.68 217.51 11.25 217.51 56.32" fill="#68e1fd"></polygon><polygon points="217.51 56.32 256.13 78.44 256.94 79.83 267.1 86.58 269.73 86.23 269.73 36.71 217.51 6.33 214.9 6.68 217.51 11.25 217.51 56.32" fill="#68e1fd"></polygon><polygon points="214.9 6.68 214.9 56.67 267.1 86.58 267.1 37.06 214.9 6.68" fill="#68e1fd"></polygon><polygon points="217.51 11.88 217.51 54.92 263.35 80.67 263.35 38.05 217.51 11.88" fill="#68e1fd"></polygon><polygon points="225.38 29.27 225.38 48.18 255.5 65.13 255.5 46.27 225.38 29.27" fill="none" stroke="#f2f2f2" stroke-miterlimit="10"></polygon><polyline points="234.59 48.49 234.59 51.36 242.37 54.75 245.05 52.92 245.05 49.68" fill="#874639"></polyline><path d="M240,52.54l5.06-2.8-7-3.83-4.5,2.33a9.83,9.83,0,0,1,5,2.65l.12.12A7.64,7.64,0,0,1,240,52.54Z" fill="#641300"></path><path d="M215.86,60.4a161.64,161.64,0,0,0,2.86,16.39.6.6,0,0,0,1.16-.31v-.13a11.86,11.86,0,0,0,3.36,1.28l.58,1.93a.59.59,0,0,0,1.16-.09h0l.31-1.45a31.48,31.48,0,0,0,3.49.24c.15.64.3,1.28.47,1.91a.6.6,0,0,0,1.16-.31v-.07h0c.17-.5.33-1,.49-1.51a16.28,16.28,0,0,0,3.63-.59c.09.86.19,1.73.26,2.59a.63.63,0,0,0,1,.42.55.55,0,0,0,.31-.36c.38-1.24.73-2.5,1.07-3.76a10.47,10.47,0,0,0,.9-.59.59.59,0,0,0,1.16,0,111.64,111.64,0,0,0,3.34-13.38c.09-.73-1-1-1.16-.31s-.26,1.34-.4,2a.59.59,0,0,0-.28.13,7.93,7.93,0,0,1-1.37.87c.08-.57.16-1,.24-1.73s-1.08-.81-1.16,0-.19,1.57-.3,2.33a20.53,20.53,0,0,1-4.16,1,3.1,3.1,0,0,1-.16-.85,4.82,4.82,0,0,0,.12-.67.62.62,0,0,0-.4-.67l-.08-.38a.6.6,0,0,0-1.16.31,5.08,5.08,0,0,1,.3,1.44c-.06.34-.14.67-.2,1-1.36.14-2.63.22-3.79.29h-1.16c.08-.47.19-.93.27-1.4a.63.63,0,0,0-.72-.71l-.06-.28c-.19-.73-1.31-.38-1.16.31l.45,2.09a26.75,26.75,0,0,1-5.09-.57l-1.4-4.65h0a.6.6,0,1,0-1.16.31l1.16,4q-1-.27-1.94-.62c-.29-1.81-.56-3.63-.78-5.45C216.93,59.65,215.77,59.65,215.86,60.4Zm10.65,11H227l.56,2.4H226ZM221.42,68a28.13,28.13,0,0,0,4.49.43c-.12.52-.22,1.13-.34,1.69a18.73,18.73,0,0,1-3.7-.64L221.39,68Zm10.61.1c-.1.59-.21,1.17-.34,1.76a27.91,27.91,0,0,1-3.74.36l-.4-1.76q1.54,0,3.07-.21Zm.69,2.72.69-.14c.13.8.26,1.56.37,2.33q-.81.16-1.63.29C232.32,72.52,232.49,71.7,232.71,70.85Zm7.51-3.78-.09.1c-.4.21-.8.42-1.23.62a7.34,7.34,0,0,0,.16-1.16,10.53,10.53,0,0,0,1.5-.79l-.28,1.24Zm-1,3.91a10.69,10.69,0,0,1-1.07.65c.17-.83.31-1.66.47-2.49q.66-.28,1.28-.58c-.2.8-.38,1.62-.6,2.42h-.07Zm-1,3.17a9.21,9.21,0,0,1-.76.69c.14-.64.27-1.2.41-1.8a10.9,10.9,0,0,0,1-.47c-.13.48-.27,1-.41,1.44a.58.58,0,0,0-.16.1Zm-2.93,1.91c-.08-.74-.2-1.41-.23-2.1.51-.13,1-.27,1.5-.43-.17.73-.35,1.48-.53,2.21-.22.12-.44.23-.66.33Zm-.45-3.28c-.12-.77-.24-1.52-.3-2.29a29.07,29.07,0,0,0,2.84-.87c-.16.86-.31,1.71-.5,2.56a18.28,18.28,0,0,1-2,.6Zm-.55-3.34c-.08-.49-.19-1-.28-1.47a23.64,23.64,0,0,0,3.76-.8c-.07.35-.13.76-.2,1.16A27.49,27.49,0,0,1,234.3,69.45Zm-.1,7a14.4,14.4,0,0,1-3.09.56c.24-.81.47-1.64.69-2.47.7-.1,1.41-.22,2.12-.36.1.76.21,1.51.3,2.27Zm-4.65.59L229,74.91h.17l1.31-.14c-.22.74-.45,1.54-.7,2.33h-.27Zm-.79-3.35c-.19-.73-.35-1.56-.51-2.28a28.77,28.77,0,0,0,3.19-.29c-.19.8-.37,1.6-.58,2.4l-1.64.19h-.45Zm-.42,3.34c-.9,0-1.91-.09-2.93-.19.14-.64.27-1.28.4-1.92a19.28,19.28,0,0,0,2.06,0c.16.71.31,1.42.49,2.12Zm-4.87-2.48a5.17,5.17,0,0,0,1.16.2c-.13.62-.24,1.23-.37,1.85H224Zm1.4-.92a14.8,14.8,0,0,1-1.83-.3l-.74-2.49a20.37,20.37,0,0,0,3.07.48l-.49,2.33Zm-5.5,1c-.09-.55-.2-1.1-.3-1.64a15.72,15.72,0,0,0,3.06,1.29l.62,2a7.81,7.81,0,0,1-3.33-1.69Zm-.57-3c-.15-.77-.27-1.55-.4-2.38A14.11,14.11,0,0,0,221,70.45l.74,2.45a14.8,14.8,0,0,1-2.49-1.16.52.52,0,0,0-.41-.06Zm-.16-3.51a.52.52,0,0,0-.44,0,6.93,6.93,0,0,1-.15-1c.7.23,1.41.44,2.12.62l.4,1.31a12.28,12.28,0,0,1-1.9-.92Z" fill="#fb9328"></path><path d="M215.33,57.4a.63.63,0,1,0,1.23.27,2.43,2.43,0,0,1,1.16-1.16q.58,1.6,1.1,3.23l-1,.38c-.69.31-.38,1.44.31,1.16l1-.4c.21.66.41,1.34.59,2a.58.58,0,0,0,1.16,0l.56-2.78a29.29,29.29,0,0,1,3.09-.77A16.28,16.28,0,0,1,225.4,64a.59.59,0,1,0,1.16.15L228,58.89c.71-.06,1.42-.06,2.13-.06l.55,5c.08.59,1.06.85,1.16.15a26.63,26.63,0,0,1,1.31-4.94,21.86,21.86,0,0,1,3.34.76,21.49,21.49,0,0,1,.1,2.59.59.59,0,1,0,1.16.15l.62-2.07,1.06.47c.66.33,1.26-.67.58-1q-.65-.31-1.3-.58l1-3.2a26.75,26.75,0,0,1,2.79,1.59c.58.42,1.21-.59.58-1a27,27,0,0,0-3-1.71l.56-1.88a.6.6,0,1,0-1.16-.31l-.5,1.7q-.94-.41-1.91-.73c-.17-1.12-.37-2.17-.62-3.34a.62.62,0,0,0-1.16,0c-.3.87-.63,1.73-1,2.59a23.83,23.83,0,0,0-3.63-.5l-.26-2.33a.59.59,0,1,0-1.16-.15l-.69,2.49a9.43,9.43,0,0,1-1.41.07,24.78,24.78,0,0,0-3.33.55,21,21,0,0,1-.52-2.21.58.58,0,0,0-1.16,0l-.57,2.83c-.66.22-1.31.47-2,.74l-1.16.47c-.26-.69-.48-1.38-.8-2.07s-1.44-.38-1.16.31.59,1.47.87,2.24a3.49,3.49,0,0,0-2,1.85Zm12.8-3.65L227,57.8q-.86.08-1.72.22c-.41-1.24-.85-2.48-1.24-3.71A23.1,23.1,0,0,1,228.13,53.75Zm2.5,0a22.51,22.51,0,0,1,3,.43l-1.45,3.63-1.16-.1-.43-3.94Zm6.8,5.23h0c-.09-1.29-.24-2.57-.42-3.85q.71.26,1.4.56Zm-1.19-.4a23.32,23.32,0,0,0-2.84-.66c.45-1.16.94-2.33,1.42-3.49l1,.28q.28,1.93.44,3.88Zm-4.42.34q-.26.73-.49,1.47l-.16-1.52Zm-1.94-1.27a11.76,11.76,0,0,0-1.69.07l1.1-4h.15l.43,4ZM226.1,61c-.14-.62-.3-1.24-.49-1.83l1-.14-.56,2Zm-2-2.79a24.46,24.46,0,0,0-2.44.59l.79-4.08.3-.08h.12c.4,1.21.84,2.47,1.23,3.63Zm-4.26,1.15q-.51-1.7-1.16-3.3a24.42,24.42,0,0,1,2.51-.91l-.83,4.1-.52.17Z" fill="#fb9328"></path><ellipse cx="229.11" cy="56.62" rx="14.21" ry="8.04" fill="none" stroke="#f15a24" stroke-miterlimit="10" stroke-width="2"></ellipse></svg>