<svg xmlns="http://www.w3.org/2000/svg" viewBox="0 0 400 300" width="406" height="306" class="illustration"><g id="_201_basketball_flatline" data-name="#201_basketball_flatline"><path d="M351.75,191.23H49.19a.5.5,0,0,1,0-1H351.75a.5.5,0,0,1,0,1Z" fill="#d1d3d4"></path><path d="M105.82,73.74A16.73,16.73,0,1,1,97.51,62,16.72,16.72,0,0,1,105.82,73.74Z" fill="#fff"></path><path d="M89.33,93.83a17.24,17.24,0,1,1,17-20.18h0a17.22,17.22,0,0,1-17,20.18Zm0-33.48a16.24,16.24,0,1,0,16,13.47h0a16.23,16.23,0,0,0-16-13.47Z" fill="#231f20"></path><path d="M85,77.33a16.71,16.71,0,0,1-3.89,13.86,16.73,16.73,0,0,1-4.42-25.61A16.76,16.76,0,0,1,85,77.33Z" fill="#fff"></path><path d="M81.15,91.69a.54.54,0,0,1-.25-.06,17.23,17.23,0,0,1-4.56-26.37.49.49,0,0,1,.62-.11,17.21,17.21,0,0,1,8.56,12.1h0a17.18,17.18,0,0,1-4,14.27A.5.5,0,0,1,81.15,91.69ZM76.83,66.23A16.24,16.24,0,0,0,81,90.55a16.24,16.24,0,0,0-4.2-24.32Z" fill="#231f20"></path><path d="M105.82,73.74a16.72,16.72,0,0,1-3.88,13.86A16.75,16.75,0,0,1,97.51,62,16.7,16.7,0,0,1,105.82,73.74Z" fill="#fff"></path><path d="M101.94,88.1a.47.47,0,0,1-.25-.07,17.25,17.25,0,0,1-4.56-26.37.52.52,0,0,1,.63-.11,17.17,17.17,0,0,1,8.55,12.1h0a17.19,17.19,0,0,1-4,14.28A.52.52,0,0,1,101.94,88.1ZM97.62,62.63A16.24,16.24,0,0,0,101.83,87a16.22,16.22,0,0,0,3.5-13.14h0A16.17,16.17,0,0,0,97.62,62.63Z" fill="#231f20"></path><path d="M92.18,93.58h0a.5.5,0,0,1-.48-.52A93.58,93.58,0,0,0,86,60.27a.5.5,0,0,1,.94-.34,94.72,94.72,0,0,1,5.73,33.18A.49.49,0,0,1,92.18,93.58Z" fill="#231f20"></path><path d="M80.47,80.55a42.66,42.66,0,0,1-7.74-.62.5.5,0,1,1,.21-1,52.48,52.48,0,0,0,32.64-5.65.49.49,0,0,1,.68.2.49.49,0,0,1-.2.67A53.68,53.68,0,0,1,80.47,80.55Z" fill="#231f20"></path><path d="M88.56,221l-13.84,3.63s-7.93,27.38-6.22,26.25,12.67-10.44,12.67-10.44l14.34-1.92Z" fill="#231f20"></path><path d="M68.4,251.45a.63.63,0,0,1-.34-.11c-.33-.24-1.31-1,6.18-26.81a.51.51,0,0,1,.35-.35l13.85-3.63a.51.51,0,0,1,.59.3l7,17.53a.49.49,0,0,1-.4.68L81.38,241c-1.22,1-11,9.28-12.61,10.37A.6.6,0,0,1,68.4,251.45Zm6.72-26.37c-2.47,8.55-6.09,21.89-6.36,25,2.74-2.08,12-9.92,12.09-10a.47.47,0,0,1,.25-.11l13.71-1.84-6.55-16.52Z" fill="#231f20"></path><polygon points="123.01 195.57 118.97 208.21 88.23 220.09 94.44 237.55 139.59 222.39 147.08 197.63 123.01 195.57" fill="#fff"></polygon><path d="M94.44,238.05a.51.51,0,0,1-.47-.33l-6.21-17.47a.48.48,0,0,1,.29-.63l30.52-11.79,4-12.41a.5.5,0,0,1,.52-.35l24.08,2.06a.49.49,0,0,1,.37.22.48.48,0,0,1,.06.42l-7.49,24.76a.5.5,0,0,1-.32.33L94.6,238A.41.41,0,0,1,94.44,238.05Zm-5.58-17.67,5.89,16.54L139.19,222l7.24-23.92-23.07-2-3.91,12.26a.53.53,0,0,1-.3.32ZM119,208.21h0Z" fill="#231f20"></path><path d="M134.52,206.7l-3.2,10.64L91.47,233l3,13.77s46.07-9.82,51.66-13.47,13-21.09,13-21.09Z" fill="#fff"></path><path d="M94.52,247.25a.5.5,0,0,1-.49-.39l-3-13.77a.48.48,0,0,1,.3-.57L130.91,217,134,206.55a.51.51,0,0,1,.59-.34l24.67,5.49a.48.48,0,0,1,.33.26.48.48,0,0,1,0,.42c-.31.72-7.54,17.62-13.19,21.31s-49.95,13.15-51.84,13.55Zm-2.47-14,2.85,12.87c4.94-1.06,45.86-9.94,51-13.3,4.85-3.18,11.26-17.33,12.58-20.32l-23.63-5.25-3.06,10.2a.53.53,0,0,1-.3.32Zm39.27-15.95h0Z" fill="#231f20"></path><path d="M169.29,173s-3.57,30.65-8.86,44.79l-30.52-8,1.63-6.79-15.4-4.73,15.11-30.65Z" fill="#231f20"></path><path d="M160.43,218.3h-.12l-30.53-8a.5.5,0,0,1-.36-.6l1.52-6.33L116,198.8a.47.47,0,0,1-.32-.28.49.49,0,0,1,0-.41l15.11-30.65a.5.5,0,0,1,.52-.28l38,5.33a.5.5,0,0,1,.42.55c0,.31-3.63,30.88-8.88,44.92A.49.49,0,0,1,160.43,218.3Zm-29.92-8.81,29.61,7.72c4.76-13.12,8.13-39.85,8.61-43.78l-37.19-5.21L116.85,198l14.84,4.57a.5.5,0,0,1,.34.59Z" fill="#231f20"></path><path d="M127.74,115l-26.57-.61q-3.83-5.16-7.58-10.36c-1.69-2.33-3.38-4.65-5-7-.46-.67-1.69-1.94-1.78-2.75-.17-1.62,1.9-4.62,2.36-6.3a2,2,0,0,0-.07-1.72,5.16,5.16,0,0,0-3.08,2c-2,2.28-3.66,3.44-4.87.1a71.44,71.44,0,0,1-1.8-7.09c-.57-2.34-2.1-1-2.15-.3s-.15,3-.15,3-.47-3.19-1.26-2.89-.55,3.63-.55,3.63-.81-3.23-1.4-2.28,1,9.5,2.65,12.41,11.58,22.83,16.18,27.42,32,8.81,32,8.81Z" fill="#fff"></path><path d="M124.69,131.52h-.08c-1.12-.18-27.63-4.31-32.3-9C88.61,118.88,81.73,105.8,78,98.77c-.92-1.75-1.65-3.14-2-3.73-1.64-2.84-3.44-11.66-2.64-12.93a.75.75,0,0,1,.77-.4.86.86,0,0,1,.59.42c.12-.78.37-1.39.83-1.57a.86.86,0,0,1,.7.06,1.29,1.29,0,0,1,.38.39.81.81,0,0,1,0-.17,1.79,1.79,0,0,1,1.5-1.48c.45,0,1.26.13,1.64,1.69.17.71.33,1.42.48,2.14a39.78,39.78,0,0,0,1.31,4.9c.38,1,.82,1.66,1.26,1.74.74.14,1.86-1,2.76-2A5.68,5.68,0,0,1,89,85.7a.51.51,0,0,1,.46.2,2.42,2.42,0,0,1,.14,2.16,15,15,0,0,1-1,2.4c-.66,1.34-1.4,2.85-1.31,3.71A5.68,5.68,0,0,0,88.47,96c.21.26.39.49.52.68,1.62,2.34,3.32,4.68,5,7,2.5,3.45,5,6.84,7.48,10.21l26.32.61a.49.49,0,0,1,.38.18.51.51,0,0,1,.1.41l-3,16.07A.5.5,0,0,1,124.69,131.52Zm-50.5-48.4c0,2,1.21,8.8,2.72,11.42.36.61,1,1.93,2,3.76,3.4,6.49,10.49,20,14.08,23.55,4.12,4.1,27.62,8,31.28,8.6l2.85-15-26-.59a.5.5,0,0,1-.39-.21q-3.83-5.16-7.59-10.36c-1.69-2.32-3.39-4.67-5-7-.12-.17-.29-.39-.48-.62a5.57,5.57,0,0,1-1.38-2.36c-.13-1.15.65-2.73,1.4-4.26a15.09,15.09,0,0,0,1-2.23,2.38,2.38,0,0,0,.12-1,5,5,0,0,0-2.41,1.73C85,90.05,83.86,91,82.69,90.81c-.83-.15-1.49-.94-2-2.38a39.27,39.27,0,0,1-1.33-5c-.16-.71-.31-1.41-.48-2.11s-.36-1-.59-.93a.82.82,0,0,0-.58.55c0,.68-.15,3-.15,3a.49.49,0,0,1-.47.48.5.5,0,0,1-.52-.42,8.78,8.78,0,0,0-.65-2.38,9.53,9.53,0,0,0-.17,3,.5.5,0,0,1-1,.16A10.65,10.65,0,0,0,74.19,83.12Z" fill="#231f20"></path><path d="M133.6,113.22a3.79,3.79,0,0,1-2.57-1.15,44.63,44.63,0,0,1-6.94-9.1,13.65,13.65,0,0,1-1.89-4c-.46-2,.08-2.62,1.86-3.24-1.4.49-.4-4.16-.32-4.38a17.83,17.83,0,0,1,5.47-7.28c1.74-1.52,5.58-3.65,6-6.13A1.61,1.61,0,0,0,134,76c5,.33,9.79,2.77,11.56,7.76,1,2.75,1.24,7.14-1.4,9.06-1.33,1-2.68,1.32-3.31,3a8,8,0,0,0,0,4.3,15.32,15.32,0,0,1,.51,4.25c-.23,2.91-2.65,5.26-4.55,7.27A4.36,4.36,0,0,1,133.6,113.22Z" fill="#fff"></path><path d="M133.64,113.72h0a4.25,4.25,0,0,1-2.9-1.28,45.88,45.88,0,0,1-7-9.2,14.71,14.71,0,0,1-2-4.15c-.45-2,.07-2.85,1.29-3.46-.52-1.32.25-4.41.27-4.44a18.52,18.52,0,0,1,5.61-7.48c.45-.4,1-.83,1.64-1.28,1.75-1.29,3.93-2.9,4.23-4.56a1.39,1.39,0,0,0-.26-1.05.73.73,0,0,0-.53-.31.5.5,0,1,1,.06-1h0c5.84.38,10.33,3.41,12,8.09,1.16,3.25,1.16,7.64-1.57,9.63-.36.26-.72.48-1.07.69A4.06,4.06,0,0,0,141.31,96a7.62,7.62,0,0,0,0,4l.09.41a14.69,14.69,0,0,1,.43,4c-.23,2.89-2.39,5.16-4.29,7.16l-.4.41A4.84,4.84,0,0,1,133.64,113.72Zm0-1a4,4,0,0,0,2.79-1.4l.39-.41c1.79-1.88,3.82-4,4-6.55a13.73,13.73,0,0,0-.41-3.7l-.09-.41a8.49,8.49,0,0,1,.06-4.58,5,5,0,0,1,2.49-2.6c.33-.2.66-.4,1-.65,2.47-1.8,2.08-6.06,1.22-8.48-1.37-3.86-4.87-6.5-9.51-7.25a2.42,2.42,0,0,1,.17,1.35c-.38,2.06-2.73,3.8-4.62,5.19-.6.45-1.16.86-1.58,1.23a17.54,17.54,0,0,0-5.33,7.07c-.21.69-.6,3.38-.26,3.78a.45.45,0,0,1,.61.28.5.5,0,0,1-.33.62c-1.57.54-1.94.94-1.55,2.66a13.72,13.72,0,0,0,1.83,3.84,44.57,44.57,0,0,0,6.87,9,3.3,3.3,0,0,0,2.23,1Z" fill="#231f20"></path><path d="M145.59,96.61s5.1,3.63,4.82,4.89-2.74,1.45-2.74,1.45" fill="#fff"></path><path d="M147.67,103.45a.5.5,0,0,1-.5-.46.49.49,0,0,1,.46-.53c.68-.06,2.15-.39,2.3-1.06s-2.12-2.6-4.63-4.38a.5.5,0,0,1,.58-.82c1.62,1.15,5.34,4,5,5.41s-2.9,1.82-3.2,1.84Z" fill="#231f20"></path><path d="M140.45,86.28c2.7.88,5.44,8.81,6.31,11.11q1.83,4.88,3.44,9.81c.68,2.09-4.61,4.19-5.78,3.94l1.68,9.45-5-.33a36.72,36.72,0,0,1-8.77-1.63l0-9.17s3.52-1.33,4-6.31-2.11-11.36-2.11-11.36S137.82,85.42,140.45,86.28Z" fill="#fff"></path><path d="M146.1,121.09h0l-5-.33a37,37,0,0,1-8.91-1.66.5.5,0,0,1-.33-.48l0-9.17a.5.5,0,0,1,.32-.46c.13,0,3.23-1.3,3.66-5.88.44-4.8-2.05-11.07-2.07-11.13a.49.49,0,0,1,0-.44c.39-.69,3.92-6.69,6.85-5.73h0c2.39.78,4.57,5.89,6.38,10.79l.23.62c1.22,3.23,2.39,6.54,3.46,9.83a2.07,2.07,0,0,1-.61,2.08,9.8,9.8,0,0,1-5.06,2.5l1.58,8.88a.47.47,0,0,1-.12.42A.51.51,0,0,1,146.1,121.09Zm-13.32-2.83a37.3,37.3,0,0,0,8.31,1.51l4.41.28-1.57-8.83a.49.49,0,0,1,.59-.57,8.44,8.44,0,0,0,4.81-2.19,1.16,1.16,0,0,0,.4-1.1c-1.07-3.27-2.23-6.57-3.44-9.79l-.24-.63c-1-2.58-3.49-9.44-5.75-10.18h0c-1.59-.52-4.19,2.75-5.55,5.07.46,1.21,2.47,6.8,2,11.37-.4,4.38-3,6.1-4,6.58Z" fill="#231f20"></path><path d="M149.19,104.82a5.72,5.72,0,0,1-6.15-.6" fill="#fff"></path><path d="M146.48,106a5.87,5.87,0,0,1-3.75-1.36.5.5,0,0,1,.62-.78,5.18,5.18,0,0,0,5.6.55.5.5,0,0,1,.49.88A6.56,6.56,0,0,1,146.48,106Z" fill="#231f20"></path><path d="M140.19,101.08a4.65,4.65,0,0,0-1.76-1.87,6.63,6.63,0,0,0-1.74-1,2.29,2.29,0,0,0-1.95.15,2.13,2.13,0,0,0-.88,1.49,4.07,4.07,0,0,0,.22,1.76,7.43,7.43,0,0,0,5.58,4.91l-.26-.12" fill="#fff"></path><path d="M139.66,107h-.1a8,8,0,0,1-6-5.26,4.44,4.44,0,0,1-.23-2,2.57,2.57,0,0,1,1.1-1.84,2.75,2.75,0,0,1,2.38-.2,7.1,7.1,0,0,1,1.87,1.08,5.18,5.18,0,0,1,1.94,2.09.5.5,0,1,1-.93.37,4.27,4.27,0,0,0-1.59-1.65,6.27,6.27,0,0,0-1.61-.94,1.77,1.77,0,0,0-1.51.08,1.62,1.62,0,0,0-.66,1.15,3.48,3.48,0,0,0,.19,1.53,7,7,0,0,0,4.71,4.47.5.5,0,0,1,.36,0l.26.13a.5.5,0,0,1-.22.94Z" fill="#231f20"></path><path d="M144.42,111.14a9.29,9.29,0,0,1-5.09-1.19s1,5.21,5.77,5Z" fill="#231f20"></path><path d="M144.83,115.46c-4.89,0-6-5.36-6-5.41a.51.51,0,0,1,.22-.52.5.5,0,0,1,.55,0,8.88,8.88,0,0,0,4.78,1.1.49.49,0,0,1,.52.41l.68,3.82a.48.48,0,0,1-.1.4.54.54,0,0,1-.37.19ZM140.16,111a5.06,5.06,0,0,0,4.34,3.48l-.5-2.8A11,11,0,0,1,140.16,111Z" fill="#231f20"></path><ellipse cx="142.89" cy="95.08" rx="0.49" ry="1.24" transform="translate(-16.1 30.43) rotate(-11.51)" fill="#231f20"></ellipse><line x1="143.51" y1="93.79" x2="140.85" y2="93.63" fill="#fff"></line><path d="M143.51,94.29h0l-2.66-.16a.5.5,0,0,1,.06-1l2.66.17a.5.5,0,0,1,0,1Z" fill="#231f20"></path><path d="M154.09,116.26s-23.32-5.08-29-1.14c0,0-4.23,8.4-3.86,14.39s10.1,30.21,10.1,30.21l-2.11,11.13s18.83,14.57,40.07,2.16C169.29,173,163.47,124.32,154.09,116.26Z" fill="#68e1fd"></path><path d="M151.24,115.69s-3.6,2.51-2,11.2,3.72,12.88,7.85,12.92,2.19-7.25,2.19-7.25,17.84,8.2,24.66,8.74,44.44-8.51,45-13.24-1.27-8-3.69-7.11-6.12,2.83-6.12,2.83,2.5-5.59.5-5.47-6.41,6.33-6.41,6.33l-29.69,2.44S159.55,114.16,151.24,115.69Z" fill="#fff"></path><path d="M184.56,141.82l-.66,0c-6-.47-20.18-6.69-23.94-8.38.28,1.51.59,4.34-.59,5.85a2.78,2.78,0,0,1-2.3,1c-4.19,0-6.61-3.9-8.33-13.33-1.63-8.91,2.06-11.59,2.22-11.7a.46.46,0,0,1,.19-.08c8.15-1.5,30.33,10.23,32.45,11.37l29.31-2.41c1-1.4,4.63-6.22,6.65-6.35a1.12,1.12,0,0,1,1,.47c.62.9,0,3-.54,4.45,1.3-.64,3.39-1.65,5-2.24a2.52,2.52,0,0,1,2.52.36c1.51,1.18,2.22,4,1.85,7.27-.15,1.34-3,4.3-20.49,9C198.86,139.85,188.53,141.82,184.56,141.82Zm-25.29-9.76a.52.52,0,0,1,.21,0c.17.09,17.84,8.18,24.49,8.7,3.27.26,14.11-1.78,24.68-4.63,13.42-3.62,19.59-6.71,19.76-8.16.37-3.32-.47-5.59-1.47-6.37a1.54,1.54,0,0,0-1.56-.22c-2.36.89-6,2.79-6.06,2.81a.54.54,0,0,1-.58-.08.51.51,0,0,1-.11-.57c.84-1.87,1.5-4.22,1.14-4.73,0,0,0,0-.15,0-1.28.08-4.38,3.79-6,6.12a.49.49,0,0,1-.37.2l-29.69,2.45a.63.63,0,0,1-.27-.06c-.24-.13-23.65-12.69-31.8-11.36-.49.43-3.11,3.14-1.74,10.64,1.62,8.86,3.75,12.48,7.36,12.51a1.79,1.79,0,0,0,1.5-.65c1.09-1.41.52-4.79.2-6a.51.51,0,0,1,.16-.51A.52.52,0,0,1,159.27,132.06Z" fill="#231f20"></path><path d="M159.1,133l-4.95-1.72a.5.5,0,1,1,.31-.95c.67.22,5,1.73,5,1.73Z" fill="#231f20"></path><path d="M91.47,233,78.12,237.2s-.73,26.25-.75,26.14A32.47,32.47,0,0,0,86,250.41l8.51-3.66Z" fill="#231f20"></path><path d="M77.37,263.84a.49.49,0,0,1-.49-.55c0-.61.5-17.31.74-26.11a.51.51,0,0,1,.35-.46l13.35-4.21a.47.47,0,0,1,.4,0,.5.5,0,0,1,.23.32L95,246.64a.5.5,0,0,1-.29.57l-8.31,3.57a32.75,32.75,0,0,1-8.71,12.94c-.07.11-.16.11-.29.12Zm1.24-26.27L78,259.27c0,1.3-.07,2.23-.1,2.89a32.23,32.23,0,0,0,7.64-11.91.55.55,0,0,1,.28-.3l8.12-3.49L91.1,233.62Z" fill="#231f20"></path><path d="M86,250.91a.57.57,0,0,1-.18,0l-4.45-1.76a.5.5,0,0,1,.36-.93l4.46,1.75a.51.51,0,0,1,.28.65A.51.51,0,0,1,86,250.91Z" fill="#fff"></path><path d="M84.54,254.4a.39.39,0,0,1-.15,0L80.23,253a.5.5,0,0,1,.31-1l4.16,1.35a.5.5,0,0,1-.16,1Z" fill="#fff"></path><path d="M78,242.61h0a.5.5,0,0,1-.49-.51l.14-4.92a.51.51,0,0,1,.35-.46l13.35-4.21a.49.49,0,0,1,.62.32.49.49,0,0,1-.32.63l-13,4.11-.13,4.56A.49.49,0,0,1,78,242.61Z" fill="#fff"></path><path d="M131.54,203.56h-.09a.5.5,0,0,1-.4-.58l3.84-21.7c-.1-.54-.62-3.45-.92-5.33a.49.49,0,0,1,.41-.57.51.51,0,0,1,.58.41c.33,2.07.93,5.4.93,5.4a.54.54,0,0,1,0,.18L132,203.15A.49.49,0,0,1,131.54,203.56Z" fill="#fff"></path><path d="M330,259.47V120.34a28.46,28.46,0,0,0-1.3-8.91,18.06,18.06,0,0,0-5.14-8,16.48,16.48,0,0,0-6.64-3.63,4.6,4.6,0,0,1,1.82-9,25.09,25.09,0,0,1,10.46,5.37,26.79,26.79,0,0,1,6.88,9,35.05,35.05,0,0,1,3.11,15.18V259.47" fill="#fff"></path><path d="M339.19,260a.51.51,0,0,1-.5-.5V120.34a34.78,34.78,0,0,0-3.07-15,26.07,26.07,0,0,0-6.75-8.86,24.43,24.43,0,0,0-10.23-5.26,4.06,4.06,0,0,0-4.78,3.21A4.13,4.13,0,0,0,317,99.3a16.82,16.82,0,0,1,6.86,3.73,18.6,18.6,0,0,1,5.28,8.24,28.89,28.89,0,0,1,1.33,9.07V259.47a.51.51,0,0,1-.5.5.5.5,0,0,1-.5-.5V120.34a27.73,27.73,0,0,0-1.28-8.75,17.52,17.52,0,0,0-5-7.81,16.09,16.09,0,0,0-6.41-3.51,5.12,5.12,0,0,1-3.93-6,5.06,5.06,0,0,1,5.95-4,25.5,25.5,0,0,1,10.69,5.48,27.12,27.12,0,0,1,7,9.19,35.85,35.85,0,0,1,3.16,15.4V259.47A.5.5,0,0,1,339.19,260Z" fill="#231f20"></path><path d="M316.92,99.78a16.21,16.21,0,0,1,5.17,2.47c2.14-2.26,4.26-4.5,6.46-6.64a25,25,0,0,0-9.81-4.85,4.6,4.6,0,0,0-1.82,9Z" fill="#231f20"></path><path d="M322.09,102.75a.52.52,0,0,1-.29-.09,15.52,15.52,0,0,0-5-2.39,5.13,5.13,0,0,1-3.93-6,5.06,5.06,0,0,1,5.95-4,25.21,25.21,0,0,1,10,5,.52.52,0,0,1,.19.36.51.51,0,0,1-.15.39c-2.14,2.09-4.19,4.24-6.44,6.63A.51.51,0,0,1,322.09,102.75Zm-5-3.45a16.34,16.34,0,0,1,5,2.3c2-2.12,3.86-4.06,5.77-5.95a24.5,24.5,0,0,0-9.15-4.4,4.06,4.06,0,0,0-4.78,3.21A4.13,4.13,0,0,0,317,99.3h0l-.12.48Z" fill="#231f20"></path><polygon points="314.82 131.86 273.49 122.83 273.49 43.98 314.82 35.9 314.82 131.86" fill="#fff"></polygon><path d="M314.82,132.36l-.1,0-41.33-9a.51.51,0,0,1-.4-.49V44a.51.51,0,0,1,.41-.49l41.33-8.07a.51.51,0,0,1,.41.1.5.5,0,0,1,.18.39v96a.53.53,0,0,1-.18.39A.52.52,0,0,1,314.82,132.36ZM274,122.43l40.33,8.8V36.51L274,44.39Z" fill="#231f20"></path><path d="M304.13,111.69h-.07l-20.91-3.33a.5.5,0,0,1-.42-.49V70.34a.51.51,0,0,1,.45-.5l20.9-2.14a.56.56,0,0,1,.39.13.51.51,0,0,1,.16.37v43a.49.49,0,0,1-.17.38A.5.5,0,0,1,304.13,111.69Zm-20.4-4.25,19.9,3.17V68.75l-19.9,2Z" fill="#d1d3d4"></path><polygon points="314.82 131.86 320.88 129.12 320.88 37.38 314.82 35.9 314.82 131.86" fill="#fff"></polygon><path d="M314.82,132.36a.53.53,0,0,1-.27-.08.52.52,0,0,1-.23-.42v-96a.49.49,0,0,1,.19-.39.51.51,0,0,1,.43-.1L321,36.9a.49.49,0,0,1,.38.48v91.74a.51.51,0,0,1-.3.46L315,132.31A.54.54,0,0,1,314.82,132.36Zm.5-95.82v94.54l5.06-2.28v-91Z" fill="#231f20"></path><path d="M268,110.2a194.67,194.67,0,0,1-19.94-.9c-8-.86-9.54-1.94-9.54-3.63S240,102.9,248,102a221.45,221.45,0,0,1,39.89,0c8,.86,9.53,1.94,9.53,3.63s-1.52,2.77-9.53,3.63A194.88,194.88,0,0,1,268,110.2Zm-24.23-4.53c4.09.78,12.63,1.53,24.23,1.53s20.14-.75,24.23-1.53c-4.09-.78-12.63-1.53-24.23-1.53S247.84,104.89,243.75,105.67Zm51,.76h0Z" fill="#231f20"></path><path d="M267.41,124.1c-1,0-24.22,0-24.22-3.52s23.23-3.53,24.22-3.53,24.21,0,24.21,3.53S268.39,124.1,267.41,124.1Zm0-6c-14.26,0-22.78,1.51-23.23,2.56.45,1,9,2.49,23.23,2.49s22.62-1.48,23.2-2.52C290,119.53,281.53,118.05,267.41,118.05Zm23.22,2.56h0Z" fill="#231f20"></path><path d="M266.87,135.38a107.65,107.65,0,0,1-14.79-.89c-6.52-1-6.52-2.17-6.52-2.63s0-1.69,6.52-2.64a123.33,123.33,0,0,1,29.58,0c6.52.95,6.52,2.17,6.52,2.64s0,1.68-6.52,2.63A107.65,107.65,0,0,1,266.87,135.38Zm0-6c-13.05,0-20.05,1.62-20.31,2.54.26.89,7.27,2.51,20.31,2.51s20-1.61,20.31-2.52C286.88,130.94,279.87,129.33,266.87,129.33Zm20.31,2.54h0Z" fill="#231f20"></path><path d="M266.57,149.41c-6.08,0-17.58-.74-17.58-3.53s11.5-3.53,17.58-3.53,17.57.74,17.57,3.53S272.64,149.41,266.57,149.41Zm0-6.06c-10.73,0-16.58,1.68-16.58,2.53s5.85,2.53,16.58,2.53,16.57-1.67,16.57-2.53S277.29,143.35,266.57,143.35Z" fill="#231f20"></path><path d="M252.12,160.62a.51.51,0,0,1-.5-.42c-1.87-11.25-12-54-12.1-54.42a.5.5,0,0,1,.37-.6.5.5,0,0,1,.6.37c.1.43,10.24,43.2,12.12,54.49a.49.49,0,0,1-.41.57Z" fill="#231f20"></path><path d="M280.86,160.62h-.05a.5.5,0,0,1-.45-.55c1.41-13.91,15-54.16,15.13-54.56a.5.5,0,0,1,.94.32c-.13.4-13.67,40.54-15.08,54.34A.49.49,0,0,1,280.86,160.62Z" fill="#231f20"></path><path d="M260.91,160.62a.5.5,0,0,1-.5-.44c-1.17-10.55-8.71-51-8.78-51.39a.5.5,0,0,1,1-.18c.08.4,7.62,40.87,8.79,51.45a.5.5,0,0,1-.44.56Z" fill="#231f20"></path><path d="M268,161.57a.51.51,0,0,1-.5-.45c-.75-7.31,0-50.59,0-52.43a.53.53,0,0,1,.51-.49.49.49,0,0,1,.49.51c0,.45-.75,45.06,0,52.31a.5.5,0,0,1-.45.55Z" fill="#231f20"></path><path d="M274.44,161.57h0a.51.51,0,0,1-.49-.51c.17-5.7,3.89-29.08,6.12-43,.83-5.22,1.49-9.34,1.5-9.71l.47,0,.4-.37c.21.23.21.23-1.38,10.22-2.22,13.94-5.94,37.28-6.11,42.91A.49.49,0,0,1,274.44,161.57Z" fill="#231f20"></path></g></svg>